<?xml version="1.0" encoding="UTF-8" standalone="no"?>
<!-- Created with Inkscape (http://www.inkscape.org/) -->

<svg
   width="16"
   height="16"
   viewBox="0 0 4.2333333 4.2333333"
   version="1.1"
   id="svg1"
   sodipodi:docname="speak@48.svg"
   inkscape:version="1.3.2 (091e20e, 2023-11-25, custom)"
   xmlns:inkscape="http://www.inkscape.org/namespaces/inkscape"
   xmlns:sodipodi="http://sodipodi.sourceforge.net/DTD/sodipodi-0.dtd"
   xmlns="http://www.w3.org/2000/svg"
   xmlns:svg="http://www.w3.org/2000/svg">
  <sodipodi:namedview
     id="namedview1"
     pagecolor="#505050"
     bordercolor="#ffffff"
     borderopacity="1"
     inkscape:showpageshadow="0"
     inkscape:pageopacity="0"
     inkscape:pagecheckerboard="1"
     inkscape:deskcolor="#505050"
     inkscape:document-units="mm"
     showguides="true"
     inkscape:zoom="22.627417"
     inkscape:cx="8.7946406"
     inkscape:cy="8.7283493"
     inkscape:window-width="1360"
     inkscape:window-height="705"
     inkscape:window-x="-8"
     inkscape:window-y="-8"
     inkscape:window-maximized="1"
     inkscape:current-layer="layer1"
     inkscape:clip-to-page="false" />
  <defs
     id="defs1" />
  <g
     inkscape:label="Layer 1"
     inkscape:groupmode="layer"
     id="layer1"
     transform="translate(1e-4)">
    <path
       d="M 3.089565,3.6290905 A 1.9147225,1.9147225 0 0 0 3.8316314,2.1166668 1.9147225,1.9147225 0 0 0 3.089565,0.60424288 L 2.8948488,0.84094852 a 1.6083348,1.6083348 0 0 1 0.630394,1.27571828 1.6083348,1.6083348 0 0 1 -0.630394,1.2757183 z"
       style="fill:#2a7fff;stroke-width:0.0134177"
       id="sound2" />
    <path
       d="M 2.6748467,3.1249107 A 1.2336775,1.2336775 0 0 0 3.1986256,2.1166668 1.2336775,1.2336775 0 0 0 2.6748467,1.1084229 L 2.5001274,1.3208264 A 0.95967128,0.95967128 0 0 1 2.9246187,2.1166668 0.95967128,0.95967128 0 0 1 2.5001274,2.9125071 Z"
       style="fill:#2a7fff;stroke-width:0.00864515"
       id="sound1" />
    <path
       id="speaker2"
       style="fill:#2a7fff;stroke-width:0.0363478"
       d="M 1.2188459,1.2537785 2.2944914,0.45602874 V 3.7773046 L 1.2188459,2.9795565 Z"
       sodipodi:nodetypes="ccccc" />
    <rect
       style="fill:#2a7fff;stroke-width:0.00446537"
       id="speaker1"
       width="0.64258814"
       height="1.7257779"
       x="0.37062195"
       y="1.2537788"
       rx="0"
       ry="0" />
  </g>
</svg>
